<svg xmlns="http://www.w3.org/2000/svg" width="36" height="36" viewBox="0 0 36 36" shape-rendering="crispEdges">
  <!-- column 1 -->
  <rect x="9" y="4" width="4" height="2" fill="#8b2620"/>
  <rect x="7" y="6" width="2" height="2" fill="#f8f8f8"/>
  <rect x="9" y="6" width="2" height="2" fill="#e87f7c"/>
  <rect x="11" y="6" width="2" height="2" fill="#e33122"/>
  <rect x="13" y="6" width="2" height="2" fill="#8b2620"/>
  <rect x="5" y="8" width="2" height="2" fill="#6a7070"/>
  <rect x="7" y="8" width="2" height="2" fill="#e87f7c"/>
  <rect x="9" y="8" width="6" height="2" fill="#e33122"/>
  <rect x="15" y="8" width="2" height="2" fill="#8b2620"/>
  <rect x="5" y="10" width="2" height="2" fill="#6a7070"/>
  <rect x="7" y="10" width="8" height="2" fill="#9dafa8"/>
  <rect x="15" y="10" width="2" height="2" fill="#6a7070"/>
  <rect x="7" y="12" width="2" height="2" fill="#6a7070"/>
  <rect x="9" y="12" width="4" height="2" fill="#9dafa8"/>
  <rect x="13" y="12" width="2" height="2" fill="#6a7070"/>
  <rect x="9" y="12" width="4" height="2" fill="#8b2620"/>
  <rect x="7" y="14" width="2" height="2" fill="#f8f8f8"/>
  <rect x="9" y="14" width="2" height="2" fill="#e87f7c"/>
  <rect x="11" y="14" width="2" height="2" fill="#e33122"/>
  <rect x="13" y="14" width="2" height="2" fill="#8b2620"/>
  <rect x="5" y="16" width="2" height="2" fill="#6a7070"/>
  <rect x="7" y="16" width="2" height="2" fill="#e87f7c"/>
  <rect x="9" y="16" width="6" height="2" fill="#e33122"/>
  <rect x="15" y="16" width="2" height="2" fill="#8b2620"/>
  <rect x="5" y="18" width="2" height="2" fill="#6a7070"/>
  <rect x="7" y="18" width="8" height="2" fill="#9dafa8"/>
  <rect x="15" y="18" width="2" height="2" fill="#6a7070"/>
  <rect x="7" y="20" width="2" height="2" fill="#6a7070"/>
  <rect x="9" y="20" width="4" height="2" fill="#9dafa8"/>
  <rect x="13" y="20" width="2" height="2" fill="#6a7070"/>
  <rect x="9" y="20" width="4" height="2" fill="#8b2620"/>
  <rect x="7" y="22" width="2" height="2" fill="#f8f8f8"/>
  <rect x="9" y="22" width="2" height="2" fill="#e87f7c"/>
  <rect x="11" y="22" width="2" height="2" fill="#e33122"/>
  <rect x="13" y="22" width="2" height="2" fill="#8b2620"/>
  <rect x="5" y="24" width="2" height="2" fill="#6a7070"/>
  <rect x="7" y="24" width="2" height="2" fill="#e87f7c"/>
  <rect x="9" y="24" width="6" height="2" fill="#e33122"/>
  <rect x="15" y="24" width="2" height="2" fill="#8b2620"/>
  <rect x="5" y="26" width="2" height="2" fill="#6a7070"/>
  <rect x="7" y="26" width="8" height="2" fill="#9dafa8"/>
  <rect x="15" y="26" width="2" height="2" fill="#6a7070"/>
  <rect x="7" y="28" width="2" height="2" fill="#6a7070"/>
  <rect x="9" y="28" width="4" height="2" fill="#9dafa8"/>
  <rect x="13" y="28" width="2" height="2" fill="#6a7070"/>
  <rect x="9" y="30" width="4" height="2" fill="#6a7070"/>
  <!-- column 2 -->
  <rect x="23" y="4" width="4" height="2" fill="#8b2620"/>
  <rect x="21" y="6" width="2" height="2" fill="#f8f8f8"/>
  <rect x="23" y="6" width="2" height="2" fill="#e87f7c"/>
  <rect x="25" y="6" width="2" height="2" fill="#e33122"/>
  <rect x="27" y="6" width="2" height="2" fill="#8b2620"/>
  <rect x="19" y="8" width="2" height="2" fill="#6a7070"/>
  <rect x="21" y="8" width="2" height="2" fill="#e87f7c"/>
  <rect x="23" y="8" width="6" height="2" fill="#e33122"/>
  <rect x="29" y="8" width="2" height="2" fill="#8b2620"/>
  <rect x="19" y="10" width="2" height="2" fill="#6a7070"/>
  <rect x="21" y="10" width="8" height="2" fill="#9dafa8"/>
  <rect x="29" y="10" width="2" height="2" fill="#6a7070"/>
  <rect x="21" y="12" width="2" height="2" fill="#6a7070"/>
  <rect x="23" y="12" width="4" height="2" fill="#9dafa8"/>
  <rect x="27" y="12" width="2" height="2" fill="#6a7070"/>
  <rect x="23" y="12" width="4" height="2" fill="#8b2620"/>
  <rect x="21" y="14" width="2" height="2" fill="#f8f8f8"/>
  <rect x="23" y="14" width="2" height="2" fill="#e87f7c"/>
  <rect x="25" y="14" width="2" height="2" fill="#e33122"/>
  <rect x="27" y="14" width="2" height="2" fill="#8b2620"/>
  <rect x="19" y="16" width="2" height="2" fill="#6a7070"/>
  <rect x="21" y="16" width="2" height="2" fill="#e87f7c"/>
  <rect x="23" y="16" width="6" height="2" fill="#e33122"/>
  <rect x="29" y="16" width="2" height="2" fill="#8b2620"/>
  <rect x="19" y="18" width="2" height="2" fill="#6a7070"/>
  <rect x="21" y="18" width="8" height="2" fill="#9dafa8"/>
  <rect x="29" y="18" width="2" height="2" fill="#6a7070"/>
  <rect x="21" y="20" width="2" height="2" fill="#6a7070"/>
  <rect x="23" y="20" width="4" height="2" fill="#9dafa8"/>
  <rect x="27" y="20" width="2" height="2" fill="#6a7070"/>
  <rect x="23" y="20" width="4" height="2" fill="#8b2620"/>
  <rect x="21" y="22" width="2" height="2" fill="#f8f8f8"/>
  <rect x="23" y="22" width="2" height="2" fill="#e87f7c"/>
  <rect x="25" y="22" width="2" height="2" fill="#e33122"/>
  <rect x="27" y="22" width="2" height="2" fill="#8b2620"/>
  <rect x="19" y="24" width="2" height="2" fill="#6a7070"/>
  <rect x="21" y="24" width="2" height="2" fill="#e87f7c"/>
  <rect x="23" y="24" width="6" height="2" fill="#e33122"/>
  <rect x="29" y="24" width="2" height="2" fill="#8b2620"/>
  <rect x="19" y="26" width="2" height="2" fill="#6a7070"/>
  <rect x="21" y="26" width="8" height="2" fill="#9dafa8"/>
  <rect x="29" y="26" width="2" height="2" fill="#6a7070"/>
  <rect x="21" y="28" width="2" height="2" fill="#6a7070"/>
  <rect x="23" y="28" width="4" height="2" fill="#9dafa8"/>
  <rect x="27" y="28" width="2" height="2" fill="#6a7070"/>
  <rect x="23" y="30" width="4" height="2" fill="#6a7070"/>
</svg>
